<svg width="80" height="70" viewBox="0 0 80 70" fill="none" xmlns="http://www.w3.org/2000/svg">
<mask id="path-1-outside-1_21_67" maskUnits="userSpaceOnUse" x="0.396729" y="0.387695" width="80" height="69" fill="black">
<rect fill="white" x="0.396729" y="0.387695" width="80" height="69"/>
<path fill-rule="evenodd" clip-rule="evenodd" d="M39.9436 8.5141C42.7788 5.67889 47.3755 5.67889 50.2107 8.5141L70.7907 29.0941C70.9255 29.2289 71.0539 29.3676 71.1759 29.51C72.7311 30.8416 73.7168 32.8193 73.7168 35.0272C73.7168 36.2022 73.4376 37.3121 72.942 38.294C72.5891 39.105 72.081 39.8647 71.4177 40.528L50.8377 61.108C48.0025 63.9432 43.4057 63.9432 40.5705 61.108C37.7353 58.2728 37.7353 53.676 40.5705 50.8408L49.1241 42.2872H13.6567C9.64714 42.2872 6.39673 39.0368 6.39673 35.0272C6.39673 31.0176 9.64714 27.7672 13.6567 27.7672H48.9295L39.9435 18.7813C37.1083 15.9461 37.1083 11.3493 39.9436 8.5141Z"/>
</mask>
<path fill-rule="evenodd" clip-rule="evenodd" d="M39.9436 8.5141C42.7788 5.67889 47.3755 5.67889 50.2107 8.5141L70.7907 29.0941C70.9255 29.2289 71.0539 29.3676 71.1759 29.51C72.7311 30.8416 73.7168 32.8193 73.7168 35.0272C73.7168 36.2022 73.4376 37.3121 72.942 38.294C72.5891 39.105 72.081 39.8647 71.4177 40.528L50.8377 61.108C48.0025 63.9432 43.4057 63.9432 40.5705 61.108C37.7353 58.2728 37.7353 53.676 40.5705 50.8408L49.1241 42.2872H13.6567C9.64714 42.2872 6.39673 39.0368 6.39673 35.0272C6.39673 31.0176 9.64714 27.7672 13.6567 27.7672H48.9295L39.9435 18.7813C37.1083 15.9461 37.1083 11.3493 39.9436 8.5141Z" fill="white"/>
<path d="M50.2107 8.5141L54.4534 4.27146V4.27146L50.2107 8.5141ZM39.9436 8.5141L44.1862 12.7567V12.7567L39.9436 8.5141ZM70.7907 29.0941L66.5481 33.3367L66.5481 33.3367L70.7907 29.0941ZM71.1759 29.51L66.6194 33.4137L66.9213 33.766L67.2737 34.0678L71.1759 29.51ZM72.942 38.294L67.5856 35.5905L67.5086 35.7431L67.4404 35.8998L72.942 38.294ZM71.4177 40.528L67.175 36.2854L71.4177 40.528ZM50.8377 61.108L55.0803 65.3506L50.8377 61.108ZM49.1241 42.2872L53.3667 46.5299L63.6094 36.2872H49.1241V42.2872ZM48.9295 27.7672V33.7672H63.4148L53.1721 23.5246L48.9295 27.7672ZM39.9435 18.7813L44.1862 14.5386L39.9435 18.7813ZM54.4534 4.27146C49.275 -0.906894 40.8793 -0.906891 35.7009 4.27146L44.1862 12.7567C44.6783 12.2647 45.476 12.2647 45.9681 12.7567L54.4534 4.27146ZM75.0333 24.8514L54.4534 4.27146L45.9681 12.7567L66.5481 33.3367L75.0333 24.8514ZM75.7324 25.6064C75.5103 25.3472 75.2772 25.0953 75.0333 24.8514L66.5481 33.3367C66.5738 33.3624 66.5975 33.3881 66.6194 33.4137L75.7324 25.6064ZM79.7168 35.0272C79.7168 30.9931 77.9079 27.3751 75.078 24.9523L67.2737 34.0678C67.5544 34.3081 67.7168 34.6454 67.7168 35.0272H79.7168ZM78.2984 40.9974C79.2075 39.1963 79.7168 37.1626 79.7168 35.0272H67.7168C67.7168 35.2419 67.6677 35.4278 67.5856 35.5905L78.2984 40.9974ZM75.6603 44.7707C76.864 43.567 77.7955 42.1776 78.4436 40.6882L67.4404 35.8998C67.3827 36.0325 67.2979 36.1625 67.175 36.2854L75.6603 44.7707ZM55.0803 65.3506L75.6603 44.7707L67.175 36.2854L46.5951 56.8654L55.0803 65.3506ZM36.3279 65.3506C41.5062 70.529 49.902 70.529 55.0803 65.3506L46.5951 56.8654C46.103 57.3574 45.3052 57.3574 44.8131 56.8654L36.3279 65.3506ZM36.3279 46.5982C31.1495 51.7765 31.1495 60.1723 36.3279 65.3506L44.8131 56.8654C44.3211 56.3733 44.3211 55.5755 44.8131 55.0835L36.3279 46.5982ZM44.8814 38.0446L36.3279 46.5982L44.8131 55.0835L53.3667 46.5299L44.8814 38.0446ZM13.6567 48.2872H49.1241V36.2872H13.6567V48.2872ZM0.396729 35.0272C0.396729 42.3505 6.33342 48.2872 13.6567 48.2872V36.2872C12.9609 36.2872 12.3967 35.7231 12.3967 35.0272H0.396729ZM13.6567 21.7672C6.33343 21.7672 0.396729 27.7039 0.396729 35.0272H12.3967C12.3967 34.3313 12.9609 33.7672 13.6567 33.7672V21.7672ZM48.9295 21.7672H13.6567V33.7672H48.9295V21.7672ZM35.7009 23.0239L44.6868 32.0099L53.1721 23.5246L44.1862 14.5386L35.7009 23.0239ZM35.7009 4.27146C30.5226 9.4498 30.5225 17.8456 35.7009 23.0239L44.1862 14.5386C43.6941 14.0466 43.6941 13.2488 44.1862 12.7567L35.7009 4.27146Z" fill="#353535" mask="url(#path-1-outside-1_21_67)"/>
</svg>
