<svg width="678" height="445" viewBox="0 0 678 445" fill="none" xmlns="http://www.w3.org/2000/svg">
<mask id="path-1-inside-1_217_523" fill="white">
<path fill-rule="evenodd" clip-rule="evenodd" d="M48 0C21.4903 0 0 21.4903 0 48V397C0 423.51 21.4903 445 48 445H572C598.51 445 620 423.51 620 397V64.5125C629.989 64.1937 640.358 65.4258 650.703 68.3924C660.503 71.2025 669.496 75.3433 677.474 80.5012C676.723 47.1834 650.611 15.3106 611.891 4.20799C600.642 0.982122 589.365 -0.192793 578.578 0.447048C576.428 0.152291 574.232 0 572 0H48Z"/>
</mask>
<path fill-rule="evenodd" clip-rule="evenodd" d="M48 0C21.4903 0 0 21.4903 0 48V397C0 423.51 21.4903 445 48 445H572C598.51 445 620 423.51 620 397V64.5125C629.989 64.1937 640.358 65.4258 650.703 68.3924C660.503 71.2025 669.496 75.3433 677.474 80.5012C676.723 47.1834 650.611 15.3106 611.891 4.20799C600.642 0.982122 589.365 -0.192793 578.578 0.447048C576.428 0.152291 574.232 0 572 0H48Z" fill="url(#paint0_linear_217_523)"/>
<path d="M620 64.5125L619.585 51.5191L607 51.9207V64.5125H620ZM650.703 68.3924L647.12 80.8888L650.703 68.3924ZM677.474 80.5012L670.416 91.4183L691.023 104.742L690.471 80.2085L677.474 80.5012ZM611.891 4.20799L608.308 16.7044L611.891 4.20799ZM578.578 0.447048L576.813 13.3266L578.076 13.4997L579.348 13.4242L578.578 0.447048ZM13 48C13 28.67 28.67 13 48 13V-13C14.3106 -13 -13 14.3106 -13 48H13ZM13 397V48H-13V397H13ZM48 432C28.67 432 13 416.33 13 397H-13C-13 430.689 14.3106 458 48 458V432ZM572 432H48V458H572V432ZM607 397C607 416.33 591.33 432 572 432V458C605.689 458 633 430.689 633 397H607ZM607 64.5125V397H633V64.5125H607ZM654.287 55.896C642.645 52.5577 630.928 51.1571 619.585 51.5191L620.415 77.5059C629.051 77.2303 638.07 78.2938 647.12 80.8888L654.287 55.896ZM684.532 69.5841C675.478 63.7306 665.315 59.0582 654.287 55.896L647.12 80.8888C655.692 83.3469 663.514 86.9559 670.416 91.4183L684.532 69.5841ZM608.308 16.7044C642.541 26.5204 663.877 54.1274 664.477 80.794L690.471 80.2085C689.57 40.2395 658.681 4.10075 615.475 -8.28841L608.308 16.7044ZM579.348 13.4242C588.663 12.8717 598.468 13.8826 608.308 16.7044L615.475 -8.28841C602.816 -11.9184 590.067 -13.2573 577.809 -12.5301L579.348 13.4242ZM572 13C573.64 13 575.246 13.1118 576.813 13.3266L580.344 -12.4325C577.61 -12.8073 574.824 -13 572 -13V13ZM48 13H572V-13H48V13Z" fill="#0553C8" fill-opacity="0.66" mask="url(#path-1-inside-1_217_523)"/>
<defs>
<linearGradient id="paint0_linear_217_523" x1="257" y1="113" x2="455.5" y2="445" gradientUnits="userSpaceOnUse">
<stop stop-color="#80B3FF"/>
<stop offset="1" stop-color="#417DF1"/>
</linearGradient>
</defs>
</svg>
