<svg width="121" height="121" viewBox="0 0 121 121" fill="none" xmlns="http://www.w3.org/2000/svg">
<path d="M83.1555 59.3132C84.0871 60.2448 84.0871 61.7552 83.1555 62.6868L67.9744 77.868C67.0428 78.7996 65.5324 78.7996 64.6008 77.868C63.6692 76.9364 63.6692 75.426 64.6008 74.4944L78.0952 61L64.6008 47.5056C63.6692 46.574 63.6692 45.0636 64.6008 44.132C65.5324 43.2004 67.0428 43.2004 67.9744 44.132L83.1555 59.3132ZM38.5299 63.3855C37.2124 63.3855 36.1444 62.3175 36.1444 61C36.1444 59.6825 37.2124 58.6145 38.5299 58.6145V63.3855ZM81.4688 63.3855H38.5299V58.6145H81.4688V63.3855Z" fill="#353535"/>
</svg>
